<svg width="114" height="234" viewBox="0 0 114 234" fill="none" xmlns="http://www.w3.org/2000/svg">
<g clip-path="url(#clip0)">
<g style="mix-blend-mode:multiply" opacity="0.15">
<path d="M112.798 202.695L59.886 233.307C58.992 233.763 58.0031 234 57 234C55.9969 234 55.008 233.763 54.114 233.307L1.20203 202.695C0.870042 202.551 0.583075 202.319 0.371481 202.025C0.159888 201.731 0.0315354 201.385 0 201.024C0.0111539 200.781 0.0734963 200.543 0.182938 200.325C0.292379 200.108 0.446447 199.916 0.635034 199.763C0.806254 199.603 0.996733 199.466 1.20203 199.354L54.114 168.753C55.0069 168.293 55.9962 168.054 57 168.054C58.0038 168.054 58.9931 168.293 59.886 168.753L112.798 199.354C114.386 200.274 114.386 201.774 112.798 202.695Z" fill="#6B99D1"/>
</g>
<path d="M112.798 195.343L59.886 225.944C58.9971 226.417 58.0008 226.652 56.9943 226.626C55.9952 226.651 55.0066 226.416 54.1253 225.944L1.20203 195.343C0.871966 195.193 0.587108 194.959 0.376102 194.664C0.165096 194.368 0.0353802 194.023 0 193.661C0.0415103 193.309 0.174291 192.973 0.385156 192.688C0.596021 192.403 0.877634 192.179 1.20203 192.036L9.60489 187.184L54.114 161.356C55.0085 160.902 55.9972 160.665 57 160.665C58.0028 160.665 58.9915 160.902 59.886 161.356L112.798 192.036C114.386 192.911 114.386 194.411 112.798 195.343Z" fill="#DCEEFF"/>
<path d="M56.9943 214.558V226.625C55.9952 226.651 55.0066 226.416 54.1253 225.944L1.20203 195.343C0.871966 195.193 0.587108 194.959 0.376102 194.663C0.165096 194.368 0.0353802 194.022 0 193.661L0 183.207C0.0113029 182.965 0.0737741 182.729 0.183263 182.514C0.292752 182.298 0.446753 182.108 0.635034 181.957L9.6049 187.139L56.9943 214.558Z" fill="#A5CBFA"/>
<path d="M56.9941 214.558V226.625C57.997 226.652 58.9896 226.417 59.8745 225.944L112.798 195.343C113.128 195.193 113.413 194.959 113.624 194.663C113.835 194.368 113.964 194.022 114 193.661V183.207C113.989 182.965 113.926 182.729 113.817 182.514C113.707 182.298 113.553 182.108 113.365 181.957L104.395 187.139L56.9941 214.558Z" fill="#C8E2FF"/>
<path d="M112.798 184.878L59.886 215.49C58.992 215.946 58.0031 216.183 57 216.183C55.9969 216.183 55.008 215.946 54.114 215.49L1.20203 184.878C0.870042 184.734 0.583075 184.502 0.371481 184.208C0.159888 183.914 0.0315354 183.568 0 183.207C0.0113029 182.966 0.0737741 182.729 0.183263 182.514C0.292752 182.298 0.446753 182.109 0.635034 181.957C0.805829 181.794 0.996301 181.653 1.20203 181.537L54.114 150.936C55.0085 150.482 55.9972 150.245 57 150.245C58.0028 150.245 58.9915 150.482 59.886 150.936L112.798 181.537C114.386 182.469 114.386 183.969 112.798 184.878Z" fill="#DCEEFF"/>
<path d="M56.9943 151.379C57.8026 151.362 58.602 151.55 59.319 151.924L112.265 182.525C112.73 182.786 112.889 183.059 112.889 183.218C112.889 183.377 112.73 183.627 112.265 183.9L59.319 214.512C58.5964 214.864 57.8034 215.047 57 215.047C56.1966 215.047 55.4036 214.864 54.681 214.512L1.75768 183.889C1.38347 183.673 1.13399 183.411 1.13399 183.207C1.16592 183.036 1.26372 182.885 1.40615 182.786C1.51544 182.684 1.63739 182.596 1.76902 182.525L54.681 151.924C55.3785 151.552 56.159 151.365 56.949 151.379H56.9943ZM56.949 150.243C55.9453 150.221 54.953 150.46 54.0686 150.936L1.20203 181.537C0.996301 181.652 0.805829 181.794 0.635034 181.957C0.446753 182.108 0.292752 182.298 0.183263 182.513C0.0737741 182.729 0.0113029 182.965 0 183.207C0.0315354 183.568 0.159888 183.914 0.371481 184.208C0.583075 184.502 0.870042 184.733 1.20203 184.877L54.114 215.489C55.008 215.945 55.9969 216.183 57 216.183C58.0031 216.183 58.992 215.945 59.886 215.489L112.798 184.877C114.386 183.968 114.386 182.468 112.798 181.537L59.886 150.936C58.9976 150.46 58.0016 150.221 56.9943 150.243H56.949Z" fill="white"/>
<path d="M55.0661 158.208L13.7775 182.071C13.4768 182.071 13.1884 182.19 12.9757 182.403C12.763 182.617 12.6436 182.906 12.6436 183.207C12.6436 183.508 12.763 183.797 12.9757 184.01C13.1884 184.224 13.4768 184.343 13.7775 184.343L55.0775 208.206C55.6732 208.508 56.3317 208.666 56.9996 208.666C57.6674 208.666 58.3259 208.508 58.9217 208.206L100.21 184.343C100.511 184.343 100.799 184.224 101.012 184.01C101.225 183.797 101.344 183.508 101.344 183.207C101.344 182.906 101.225 182.617 101.012 182.403C100.799 182.19 100.511 182.071 100.21 182.071L58.967 158.208C58.3634 157.898 57.6949 157.736 57.0166 157.736C56.3383 157.736 55.6697 157.898 55.0661 158.208V158.208Z" fill="#344593"/>
<path d="M100.211 182.105L58.9678 158.209C58.3744 157.895 57.7108 157.738 57.04 157.754V159.708L99.9275 184.525L100.256 184.332C100.512 184.275 100.74 184.131 100.901 183.925C101.063 183.718 101.148 183.462 101.143 183.2C101.138 182.938 101.042 182.685 100.872 182.486C100.702 182.286 100.469 182.152 100.211 182.105V182.105Z" fill="#1E3779"/>
<path d="M56.9939 157.754C56.3233 157.74 55.6601 157.896 55.0661 158.208L13.7775 182.071C13.4768 182.071 13.1884 182.191 12.9757 182.404C12.763 182.617 12.6436 182.906 12.6436 183.207C12.6436 183.508 12.763 183.797 12.9757 184.011C13.1884 184.224 13.4768 184.343 13.7775 184.343L14.1064 184.537L56.9939 159.72V157.754Z" fill="#031F60"/>
<path d="M61.5078 221.785L64.7397 219.91V216.183L61.5078 218.046V221.785Z" fill="#E73555"/>
<path d="M66.0322 219.387L69.2528 217.524V213.785L66.0322 215.66V219.387Z" fill="#0662DD"/>
<path d="M43.7266 140.823L72.3144 114.711L78.4607 146.243" stroke="#344593" stroke-miterlimit="10"/>
<path d="M36.2881 140.823C36.2881 139.353 36.723 137.916 37.538 136.694C38.3529 135.472 39.5111 134.52 40.8663 133.957C42.2214 133.395 43.7126 133.248 45.1512 133.534C46.5898 133.821 47.9113 134.529 48.9485 135.568C49.9857 136.608 50.692 137.932 50.9782 139.373C51.2643 140.815 51.1175 142.309 50.5561 143.667C49.9948 145.025 49.0443 146.186 47.8247 147.002C46.605 147.819 45.1712 148.255 43.7044 148.255C41.7375 148.255 39.8511 147.472 38.4603 146.078C37.0694 144.684 36.2881 142.794 36.2881 140.823V140.823Z" fill="url(#paint0_linear)"/>
<path d="M68.3233 114.768C68.321 113.974 68.5539 113.197 68.9924 112.536C69.4309 111.875 70.0552 111.359 70.7865 111.054C71.5177 110.748 72.323 110.667 73.1002 110.821C73.8775 110.974 74.5918 111.355 75.1527 111.916C75.7137 112.476 76.0961 113.191 76.2515 113.97C76.4068 114.748 76.3282 115.555 76.0256 116.289C75.723 117.022 75.2099 117.649 74.5514 118.091C73.8928 118.532 73.1184 118.767 72.3262 118.767C71.2665 118.767 70.2501 118.346 69.4997 117.597C68.7493 116.847 68.3263 115.83 68.3233 114.768V114.768Z" fill="url(#paint1_linear)"/>
<path d="M73.4482 146.243C73.4482 145.25 73.7422 144.279 74.293 143.453C74.8437 142.627 75.6265 141.983 76.5424 141.603C77.4583 141.223 78.466 141.123 79.4383 141.317C80.4106 141.511 81.3037 141.989 82.0047 142.692C82.7056 143.394 83.183 144.289 83.3764 145.263C83.5698 146.238 83.4705 147.247 83.0912 148.165C82.7118 149.083 82.0694 149.867 81.2451 150.419C80.4209 150.971 79.4518 151.266 78.4605 151.266C77.1312 151.266 75.8563 150.737 74.9163 149.795C73.9763 148.853 73.4482 147.575 73.4482 146.243Z" fill="url(#paint2_linear)"/>
<path opacity="0.3" d="M57.0057 76.3833L0 43.4189V184.196L56.9943 217.161" fill="#57F7E0"/>
<path opacity="0.2" d="M56.9941 217.161L113.988 184.196L114 43.4189L57.0055 76.3833" fill="#57F7E0"/>
<path d="M112.798 45.0892L59.886 75.6899C58.993 76.1423 58.0063 76.378 57.0057 76.378C56.005 76.378 55.0184 76.1423 54.1253 75.6899L1.20203 45.0892C0.871453 44.9431 0.585765 44.7113 0.374458 44.4177C0.163152 44.124 0.0338839 43.7792 0 43.4188C0.0315354 43.0577 0.159888 42.7118 0.371481 42.4177C0.583075 42.1237 0.870042 41.8924 1.20203 41.7484L9.60489 36.8964L54.114 11.1363C55.0085 10.682 55.9972 10.4453 57 10.4453C58.0028 10.4453 58.9915 10.682 59.886 11.1363L112.798 41.7484C114.386 42.6688 114.386 44.1687 112.798 45.0892Z" fill="#DCEEFF"/>
<path d="M56.9943 64.3152V76.3828C55.9952 76.4082 55.0066 76.1733 54.1253 75.701L1.20203 45.0888C0.871453 44.9428 0.585765 44.711 0.374458 44.4174C0.163152 44.1237 0.0338839 43.7789 0 43.4185L0 32.9531C0.0140952 32.7121 0.0777882 32.4767 0.187074 32.2616C0.296361 32.0464 0.448877 31.8563 0.635034 31.7031L9.6049 36.8961L56.9943 64.3152Z" fill="#A5CBFA"/>
<path d="M56.9941 64.3152V76.3828C57.997 76.4097 58.9896 76.1748 59.8745 75.701L112.798 45.0888C113.128 44.9428 113.414 44.711 113.625 44.4174C113.837 44.1237 113.966 43.7789 114 43.4185V32.9531C113.99 32.7147 113.932 32.4808 113.828 32.2659C113.725 32.0509 113.579 31.8594 113.399 31.7031L104.429 36.8961L56.9941 64.3152Z" fill="#C8E2FF"/>
<path d="M112.798 34.6344L59.886 65.2466C58.992 65.7026 58.0031 65.9403 57 65.9403C55.9969 65.9403 55.008 65.7026 54.114 65.2466L1.20203 34.6344C0.868449 34.4895 0.580423 34.2565 0.368713 33.9603C0.157003 33.6641 0.0295619 33.3158 0 32.9527C0.0140952 32.7117 0.0777882 32.4763 0.187074 32.2612C0.296361 32.0461 0.448877 31.8559 0.635034 31.7028C0.80916 31.5468 0.999209 31.4097 1.20203 31.2937L54.114 0.692898C55.0085 0.238661 55.9972 0.00195312 57 0.00195312C58.0028 0.00195313 58.9915 0.238661 59.886 0.692898L112.798 31.2937C114.386 32.2141 114.386 33.7254 112.798 34.6344Z" fill="#DCEEFF"/>
<path d="M56.9943 1.13671C57.8032 1.11474 58.604 1.30262 59.319 1.68214L112.265 32.2829C112.73 32.5443 112.889 32.817 112.889 32.9647C112.889 33.1124 112.73 33.3851 112.265 33.6465L59.353 64.3268C58.6359 64.6995 57.8359 64.8833 57.0283 64.8609C56.2383 64.8761 55.4575 64.6884 54.7604 64.3155L1.75768 33.6465C1.38347 33.4306 1.13399 33.1579 1.13399 32.9533C1.14795 32.8682 1.17933 32.787 1.22617 32.7146C1.27301 32.6422 1.33429 32.5804 1.40615 32.5329C1.51243 32.427 1.63494 32.3387 1.76902 32.2716L54.681 1.67078C55.3814 1.30781 56.1606 1.12432 56.949 1.13671H56.9943ZM56.949 0.000401551C55.9453 -0.02147 54.953 0.217321 54.0686 0.69355L1.20203 31.2943C0.999209 31.4103 0.80916 31.5475 0.635034 31.7034C0.448877 31.8566 0.296361 32.0467 0.187074 32.2618C0.0777882 32.4769 0.0140952 32.7124 0 32.9533C0.0315354 33.3145 0.159888 33.6603 0.371481 33.9544C0.583075 34.2484 0.870042 34.4797 1.20203 34.6237L54.114 65.2472C55.008 65.7032 55.9969 65.9409 57 65.9409C58.0031 65.9409 58.992 65.7032 59.886 65.2472L112.798 34.6351C114.386 33.726 114.386 32.2147 112.798 31.2943L59.886 0.69355C58.9976 0.217353 58.0016 -0.0213731 56.9943 0.000401551H56.949Z" fill="white"/>
<path d="M55.0665 7.95425L13.778 31.8167C12.712 32.4417 12.712 33.4303 13.778 34.0893L55.0779 57.9518C55.6795 58.2618 56.3462 58.4236 57.0227 58.4236C57.6992 58.4236 58.3659 58.2618 58.9675 57.9518L100.211 34.0893C101.277 33.4757 101.277 32.4872 100.211 31.8167L58.9675 7.95425C58.3639 7.64415 57.6953 7.48242 57.017 7.48242C56.3387 7.48242 55.6701 7.64415 55.0665 7.95425V7.95425Z" fill="#344593"/>
<path d="M100.211 31.8171L58.9678 7.95462C58.3744 7.6409 57.7108 7.48444 57.04 7.50009V9.46591L99.8822 34.2715L100.211 34.0783C101.277 33.4647 101.277 32.4762 100.211 31.8171Z" fill="#1E3779"/>
<path d="M56.9943 7.51162C56.3237 7.49747 55.6605 7.65385 55.0666 7.96615L13.778 31.8173C12.712 32.4422 12.712 33.4308 13.778 34.0899L14.1068 34.283L56.9943 9.46607V7.51162Z" fill="#031F60"/>
<path opacity="0.3" d="M54.125 75.7012C54.3362 75.8232 54.556 75.9295 54.7827 76.0193C54.556 75.9295 54.3362 75.8232 54.125 75.7012Z" fill="#57F7E0"/>
<path opacity="0.3" d="M56.9379 208.672C56.2927 208.655 55.6587 208.5 55.0781 208.218C55.6587 208.5 56.2927 208.655 56.9379 208.672V208.672Z" fill="#57F7E0"/>
<path opacity="0.3" d="M55.0557 76.1328C55.2031 76.1328 55.3392 76.2351 55.4866 76.2692C55.3392 76.201 55.2031 76.1328 55.0557 76.1328Z" fill="#57F7E0"/>
<path opacity="0.3" d="M59.8858 75.6902C59.0157 76.213 58.0062 76.455 56.9941 76.3833V208.684C57.6635 208.675 58.3224 208.516 58.9219 208.218L99.8816 184.526C100.641 184.105 101.016 183.73 101.016 183.219V51.9072L59.8858 75.6902Z" fill="#57F7E0"/>
<path opacity="0.5" d="M54.7832 76.0195L55.0554 76.0991L54.7832 76.0195Z" fill="#57F7E0"/>
<path opacity="0.5" d="M55.4863 76.2354L56.1781 76.349L55.4863 76.2354Z" fill="#57F7E0"/>
<path opacity="0.5" d="M56.2236 76.3486C56.4652 76.3659 56.7078 76.3659 56.9494 76.3486C56.7078 76.3659 56.4652 76.3659 56.2236 76.3486V76.3486Z" fill="#57F7E0"/>
<path opacity="0.5" d="M56.9492 76.3833C56.7076 76.4006 56.465 76.4006 56.2234 76.3833V76.3833L55.5317 76.2697C55.3843 76.2697 55.2482 76.1788 55.1008 76.1333L54.8286 76.0538C54.6019 75.9639 54.3821 75.8576 54.1709 75.7356L12.9844 51.9072V183.219C13.002 183.463 13.085 183.697 13.2248 183.897C13.3646 184.097 13.5558 184.255 13.7782 184.355L55.0781 208.218C55.6587 208.5 56.2927 208.655 56.9378 208.672V208.672V76.3833H56.9492Z" fill="#57F7E0"/>
</g>
<defs>
<linearGradient id="paint0_linear" x1="38.9076" y1="135.982" x2="48.7935" y2="145.859" gradientUnits="userSpaceOnUse">
<stop stop-color="#91F1E6"/>
<stop offset="1" stop-color="#0662DD"/>
</linearGradient>
<linearGradient id="paint1_linear" x1="560.531" y1="902.148" x2="598.155" y2="939.696" gradientUnits="userSpaceOnUse">
<stop stop-color="#91F1E6"/>
<stop offset="1" stop-color="#0662DD"/>
</linearGradient>
<linearGradient id="paint2_linear" x1="738.271" y1="1405.18" x2="797.336" y2="1464.12" gradientUnits="userSpaceOnUse">
<stop stop-color="#91F1E6"/>
<stop offset="1" stop-color="#0662DD"/>
</linearGradient>
<clipPath id="clip0">
<rect width="114" height="234" fill="white"/>
</clipPath>
</defs>
</svg>
