<?xml version="1.0" encoding="UTF-8" standalone="no"?> <!-- Created with Vectornator for iOS (http://vectornator.io/) --><!DOCTYPE svg PUBLIC "-//W3C//DTD SVG 1.1//EN" "http://www.w3.org/Graphics/SVG/1.1/DTD/svg11.dtd">
<svg style="fill-rule:evenodd;clip-rule:evenodd;stroke-linecap:round;stroke-linejoin:round;" xmlns:vectornator="http://vectornator.io" xmlns:xlink="http://www.w3.org/1999/xlink" xmlns="http://www.w3.org/2000/svg" xml:space="preserve" version="1.1" viewBox="0 0 512 512">
<metadata>
<vectornator:setting key="DimensionsVisible" value="1"/>
<vectornator:setting key="New" value="1"/>
<vectornator:setting key="SnapToPoints" value="0"/>
<vectornator:setting key="GuidesVisible" value="1"/>
<vectornator:setting key="RulersVisible" value="1"/>
<vectornator:setting key="CMYKEnabledKey" value="0"/>
<vectornator:setting key="SnapToEdges" value="0"/>
<vectornator:setting key="DisplayWhiteBackground" value="0"/>
<vectornator:setting key="SnapToGuides" value="1"/>
<vectornator:setting key="GridSpacing" value="36"/>
<vectornator:setting key="Units" value="Pixels"/>
<vectornator:setting key="DynamicGuides" value="0"/>
<vectornator:setting key="SnapToGrid" value="0"/>
</metadata>
<defs>
<radialGradient cx="255.832" r="200.097" id="RadialGradient" gradientUnits="userSpaceOnUse" gradientTransform="matrix(1 0 0 1 0 0)" cy="255.704">
<stop stop-color="#fdfdfd" offset="0"/>
<stop stop-color="#e6e6e6" offset="1"/>
</radialGradient>
<linearGradient y1="641.659" id="LinearGradient" x1="891.615" y2="350.329" x2="1023.84" gradientUnits="userSpaceOnUse" gradientTransform="matrix(0.645682 0 0 0.645682 -363.854 -0.938996)">
<stop stop-color="#1b1343" offset="0"/>
<stop stop-color="#514db0" offset="1"/>
</linearGradient>
</defs>
<g id="Layer 2" vectornator:layerName="Layer 2" visibility="hidden">
<path d="M13.0884+0.725955L498.576+0.725955C504.61+0.725955+509.502+5.61796+509.502+11.6525L509.502+499.755C509.502+505.79+504.61+510.682+498.576+510.682L13.0884+510.682C7.05384+510.682+2.16184+505.79+2.16184+499.755L2.16184+11.6525C2.16184+5.61796+7.05384+0.725955+13.0884+0.725955Z" opacity="1" fill="url(#RadialGradient)"/>
</g>
<g id="Layer 1" vectornator:layerName="Layer 1">
<path d="M170.411+23.4851C106.749+53.5998+54.7011+122.302+151.822+179.282C156.198+166.272+165.947+151.41+166.051+151.429C158.21+139.373+118.921+120.196+170.411+23.4851ZM340.316+23.4851C391.807+120.197+352.517+139.373+344.676+151.429C344.781+151.41+354.529+166.272+358.905+179.282C456.026+122.302+403.979+53.5999+340.316+23.4851ZM87.0932+75.3771C28.7866+120.166+42.6058+215.865+183.066+236.866C183.82+237.396+164.587+224.358+147.462+193.693C108.87+172.017+91.4384+155.797+87.0932+75.3771ZM423.634+75.3771C419.289+155.797+401.857+172.017+363.265+193.693C346.14+224.358+326.908+237.396+327.661+236.866C468.122+215.865+481.941+120.166+423.634+75.3771ZM199.233+146.827C212.03+172.016+215.759+179.31+230.962+212.04C234.822+252.964+228.09+256.673+221.94+284.519C221.443+286.214+217.635+277.682+205.894+251.338C141.886+237.663+99.2683+234.087+43.8599+172.258C25.8354+314.742+215.532+343.395+235.503+349.127C232.802+354.7+196.993+396.538+196.993+396.538L222.121+432.99L257.725+358.755L292.905+432.808L317.549+397.628C317.549+397.628+271.756+350.22+277.646+350.762C306.168+343.57+486.114+305.477+468.078+169.715C381.502+256.23+315.55+242.461+306.105+253.094C297.858+273.826+296.255+271.105+291.391+286.154C275.054+261.783+276.528+223.548+275.89+212.948C294.756+212.239+300.099+236.125+298.779+227.42C290.318+171.655+243.496+178.313+243.496+178.313L199.233+146.827ZM257.725+371.834L204.138+482.641L257.301+450.61L310.465+482.641L257.725+371.834ZM257.665+457.876L243.617+466.293L257.665+488.515L271.712+466.293L257.665+457.876Z" opacity="1" fill="url(#LinearGradient)"/>
</g>
</svg>
