<svg width="427" height="466" viewBox="0 0 427 466" fill="none" xmlns="http://www.w3.org/2000/svg">
<path fill-rule="evenodd" clip-rule="evenodd" d="M127.757 0C64.0949 30.1147 12.047 98.8169 109.168 155.797C113.544 142.787 123.293 127.925 123.397 127.944C115.556 115.888 76.2669 96.7109 127.757 0ZM297.662 0C349.153 96.7119 309.863 115.888 302.022 127.944C302.127 127.925 311.875 142.787 316.251 155.797C413.372 98.8169 361.325 30.1148 297.662 0ZM44.4391 51.892C-13.8675 96.6809 -0.0482788 192.38 140.412 213.381C141.166 213.911 121.933 200.873 104.808 170.208C66.2159 148.532 48.7843 132.312 44.4391 51.892ZM380.98 51.892C376.635 132.312 359.203 148.532 320.611 170.208C303.486 200.873 284.254 213.911 285.007 213.381C425.468 192.38 439.287 96.6809 380.98 51.892ZM156.579 123.342C169.376 148.531 173.105 155.825 188.308 188.555C192.168 229.479 185.436 233.188 179.286 261.034C178.789 262.729 174.981 254.197 163.24 227.853C99.2319 214.178 56.6142 210.602 1.20583 148.773C-16.8187 291.257 172.878 319.91 192.849 325.642C190.148 331.215 154.339 373.053 154.339 373.053L179.467 409.505L215.071 335.27L250.251 409.323L274.895 374.143C274.895 374.143 229.102 326.735 234.992 327.277C263.514 320.085 443.46 281.992 425.424 146.23C338.848 232.745 272.896 218.976 263.451 229.609C255.204 250.341 253.601 247.62 248.737 262.669C232.4 238.298 233.874 200.063 233.236 189.463C252.102 188.754 257.445 212.64 256.125 203.935C247.664 148.17 200.842 154.828 200.842 154.828L156.579 123.342ZM215.071 348.349L161.484 459.156L214.647 427.125L267.811 459.156L215.071 348.349ZM215.011 434.391L200.963 442.808L215.011 465.03L229.058 442.808L215.011 434.391Z" fill="#F1F1F1"/>
</svg>
