<svg width="50" height="55" viewBox="0 0 50 55" fill="none" xmlns="http://www.w3.org/2000/svg">
<path fill-rule="evenodd" clip-rule="evenodd" d="M14.8435 0C7.44692 3.4989 1.39969 11.4811 12.6838 18.1014C13.1922 16.5898 14.3249 14.8631 14.337 14.8653C13.426 13.4645 8.86113 11.2364 14.8435 0ZM34.5841 0C40.5666 11.2365 36.0017 13.4645 35.0907 14.8653C35.1028 14.8631 36.2354 16.5898 36.7439 18.1014C48.0279 11.4811 41.9808 3.49891 34.5841 0ZM5.16319 6.02911C-1.6112 11.2329 -0.00560931 22.3518 16.3139 24.7918C16.4015 24.8534 14.1669 23.3386 12.1772 19.7757C7.69335 17.2573 5.66805 15.3728 5.16319 6.02911ZM44.2644 6.02911C43.7596 15.3728 41.7343 17.2573 37.2504 19.7757C35.2607 23.3386 33.0263 24.8534 33.1138 24.7918C49.4333 22.3518 51.0389 11.2329 44.2644 6.02911ZM18.1922 14.3306C19.6791 17.2572 20.1123 18.1046 21.8787 21.9074C22.3272 26.6622 21.545 27.0931 20.8305 30.3284C20.7727 30.5254 20.3303 29.5341 18.9662 26.4733C11.5293 24.8844 6.57777 24.4689 0.1401 17.2853C-1.95409 33.8399 20.086 37.169 22.4063 37.835C22.0925 38.4825 17.932 43.3434 17.932 43.3434L20.8515 47.5786L24.9882 38.9536L29.0756 47.5575L31.9389 43.4701C31.9389 43.4701 26.6184 37.9619 27.3027 38.0249C30.6166 37.1893 51.5237 32.7634 49.4282 16.9898C39.3693 27.0416 31.7066 25.4419 30.6093 26.6773C29.6511 29.0861 29.4648 28.7699 28.8997 30.5184C27.0016 27.6868 27.1728 23.2445 27.0987 22.0129C29.2907 21.9305 29.9114 24.7057 29.7581 23.6943C28.775 17.2152 23.335 17.9888 23.335 17.9888L18.1922 14.3306ZM24.9882 40.4732L18.7621 53.3474L24.9389 49.6258L31.1158 53.3474L24.9882 40.4732ZM24.9812 50.47L23.349 51.448L24.9812 54.0299L26.6133 51.448L24.9812 50.47Z" fill="white"/>
</svg>
